PathFileType	4	(X/Y/Z)	 s05c0101.trc
DataRate	CameraRate	NumFrames	NumMarkers	Units	OrigDataRate	OrigDataStartFrame	OrigNumFrames
200	200	6	50	mm	200	1	2000
Frame#	Time	racr			lacr			c7			jug			rlel			rdr			llel			ldr			s2			lic			ric			lasi			rasi			rpsi			lpsi			rgt			lgt			rth1			rth2			rth3			rth4			rlfc			rmfc			rsh1			rsh2			rsh3			rsh4			rlmal			rmmal			rcal			rtoe			rmt5			lth1			lth2			lth4			lth3			llfc			lmfc			lsh1			lsh2			lsh3			lsh4			llmal			lmmal			lcal			ltoe			lmt5			SBIKE			LBIKE			RBIKE			
		X1	Y1	Z1	X2	Y2	Z2	X3	Y3	Z3	X4	Y4	Z4	X5	Y5	Z5	X6	Y6	Z6	X7	Y7	Z7	X8	Y8	Z8	X9	Y9	Z9	X10	Y10	Z10	X11	Y11	Z11	X12	Y12	Z12	X13	Y13	Z13	X14	Y14	Z14	X15	Y15	Z15	X16	Y16	Z16	X17	Y17	Z17	X18	Y18	Z18	X19	Y19	Z19	X20	Y20	Z20	X21	Y21	Z21	X22	Y22	Z22	X23	Y23	Z23	X24	Y24	Z24	X25	Y25	Z25	X26	Y26	Z26	X27	Y27	Z27	X28	Y28	Z28	X29	Y29	Z29	X30	Y30	Z30	X31	Y31	Z31	X32	Y32	Z32	X33	Y33	Z33	X34	Y34	Z34	X35	Y35	Z35	X36	Y36	Z36	X37	Y37	Z37	X38	Y38	Z38	X39	Y39	Z39	X40	Y40	Z40	X41	Y41	Z41	X42	Y42	Z42	X43	Y43	Z43	X44	Y44	Z44	X45	Y45	Z45	X46	Y46	Z46	X47	Y47	Z47	X48	Y48	Z48	X49	Y49	Z49	X50	Y50	Z50	
1	0.0050	438.035383	1376.903068	-125.843892	444.659185	1395.093737	-405.480900	416.359105	1466.731815	-268.910249	397.462090	1312.354727	-268.803308	533.166614	1131.347443	-39.342211	698.531505	922.037659	-77.088298	529.618161	1137.082745	-493.106417	762.165941	1036.714097	-449.052263	-101.626435	1165.289119	-261.633145	53.630248	1178.379753	-402.589789	52.925027	1188.447372	-122.136820	97.068364	1119.788784	-372.510137	87.617942	1125.535885	-149.168031	-65.359233	1210.661602	-221.426482	-63.199323	1213.882522	-306.874356	1.610886	1060.911116	-89.696174	-21.961359	1074.825071	-432.411091	100.317497	998.563105	-73.422762	187.425569	979.438007	-72.902263	251.551836	918.964680	-77.940402	203.530708	1011.135786	-84.542830	381.984472	838.701406	-107.268254	370.461642	834.124360	-217.630636	318.945222	745.120205	-86.106139	315.658886	656.239594	-94.702911	271.671227	582.883460	-99.980717	344.695776	648.750212	-117.614945	242.864310	449.387081	-111.890223	256.079546	474.664551	-190.876407	172.931813	417.104188	-157.722753	467.608783	400.059447	-145.009316	365.702540	373.303055	-83.000046	63.043269	962.171750	-454.402522	138.083475	919.193150	-456.746421	164.126443	941.731763	-440.547893	181.404432	840.423145	-463.435844	260.376422	710.670182	-433.486481	245.564790	702.060440	-323.919420	163.856146	628.972701	-456.721366	121.681197	552.777312	-444.144589	45.029615	508.051460	-443.379435	145.687420	534.873744	-420.719676	-35.520174	414.041128	-433.965531	-7.809043	425.628080	-354.903363	-109.405123	400.926375	-391.435900	152.287130	267.250474	-394.269376	43.852475	286.670315	-458.983320	-260.047871	899.348563	-280.180143	-43.375548	85.168497	-474.868790	-51.430693	79.786807	-77.325013	
2	0.0100	438.074448	1376.911436	-125.875834	444.664625	1395.106118	-405.517920	416.279538	1466.775723	-268.952406	397.528004	1312.331245	-268.860646	533.148741	1131.339106	-39.294731	698.499964	922.039714	-77.072289	529.658777	1137.116548	-493.138773	762.106520	1036.407918	-448.565094	-101.654459	1165.279469	-261.626566	53.649653	1178.403734	-402.666100	52.902744	1188.441118	-122.165171	97.047153	1119.758748	-372.534081	87.599802	1125.552368	-149.160347	-65.368282	1210.646052	-221.442969	-63.207277	1213.873512	-306.873868	1.639743	1060.907414	-89.708858	-21.980050	1074.815852	-432.415821	100.331749	998.579543	-73.440593	187.440675	979.467235	-72.917670	251.581146	919.004498	-77.957581	203.546970	1011.165491	-84.586629	382.003570	838.740998	-107.284767	370.471047	834.143384	-217.641777	318.961157	745.162782	-86.136183	315.670416	656.291674	-94.725851	271.699993	582.938090	-100.004127	344.719731	648.809647	-117.633300	242.869564	449.441593	-111.886325	256.070571	474.720055	-190.884329	172.941600	417.155432	-157.716700	467.592598	400.103929	-145.012595	365.676845	373.363296	-83.004269	63.032198	962.178420	-454.426205	138.080633	919.192003	-456.762099	164.121928	941.713908	-440.530658	181.411605	840.413090	-463.428521	260.368060	710.655602	-433.476439	245.597000	702.093635	-323.877518	163.853860	628.945533	-456.710282	121.677608	552.749853	-444.145869	45.037589	508.025651	-443.384592	145.694268	534.860721	-420.707642	-35.507019	413.999780	-433.971761	-7.814976	425.622866	-354.882880	-109.393932	400.914945	-391.455301	152.295376	267.218064	-394.276644	43.858220	286.651596	-458.980488	-260.022001	899.354908	-280.232506	-43.409884	85.173592	-474.872445	-51.425255	79.784077	-77.337961	
3	0.0150	438.121967	1376.925850	-125.922801	444.655203	1395.127696	-405.535767	416.206865	1466.814487	-269.005943	397.563495	1312.294452	-268.917337	533.148243	1131.337665	-39.262824	698.499142	922.025905	-77.072785	529.673046	1137.141546	-493.174713	762.249440	1036.407068	-448.597449	-101.675816	1165.271342	-261.633918	53.593802	1178.398022	-402.632347	52.903355	1188.446964	-122.210673	97.032679	1119.767983	-372.543536	87.596700	1125.565070	-149.192421	-65.386690	1210.642249	-221.468219	-63.228454	1213.866261	-306.881279	1.632190	1060.906712	-89.725140	-21.987256	1074.798770	-432.420233	100.332453	998.586660	-73.450852	187.449268	979.484757	-72.943437	251.583450	919.022380	-77.963742	203.551758	1011.196690	-84.597354	382.033490	838.770171	-107.319356	370.489739	834.169495	-217.651704	318.972260	745.210516	-86.160081	315.684910	656.309637	-94.753035	271.689217	582.972102	-100.013083	344.735315	648.830470	-117.639143	242.867382	449.473312	-111.889958	256.091979	474.745001	-190.885309	172.928856	417.207274	-157.725903	467.587275	400.123310	-145.010996	365.667421	373.399843	-82.995771	63.029714	962.170241	-454.423000	138.078842	919.173020	-456.751926	164.123043	941.701982	-440.541278	181.423316	840.458109	-463.434891	260.360934	710.640174	-433.466803	245.564842	702.069646	-323.863623	163.847732	628.926174	-456.693195	121.677328	552.737520	-444.129082	45.037219	507.994325	-443.381623	145.695326	534.848508	-420.696425	-35.502044	413.964269	-433.975665	-7.803124	425.596789	-354.874772	-109.378442	400.885706	-391.440222	152.299391	267.196911	-394.284987	43.875912	286.629528	-458.994212	-260.026059	899.333785	-280.140076	-43.403596	85.178228	-474.855118	-51.419670	79.780203	-77.347730	
4	0.0200	438.140025	1376.919487	-125.933273	444.673707	1395.168720	-405.574481	416.148058	1466.843202	-269.055039	397.622821	1312.283260	-268.972646	533.174048	1131.340457	-39.220955	698.508970	922.139861	-76.960277	529.703221	1137.165284	-493.207832	762.436992	1036.844426	-448.063721	-101.691268	1165.256968	-261.627783	53.576473	1178.381998	-402.656035	52.751402	1188.512104	-122.741909	96.824857	1120.315495	-372.490497	87.587850	1125.575893	-149.206207	-65.412316	1210.640369	-221.463148	-63.249380	1213.858815	-306.881616	1.629977	1060.911596	-89.724768	-21.998755	1074.786372	-432.409877	100.323860	998.610706	-73.471653	187.527992	979.427570	-73.027862	251.438390	918.987268	-78.083231	203.555409	1011.212629	-84.623123	382.061135	838.791532	-107.340540	370.530848	833.942866	-217.813023	319.004268	745.237177	-86.188325	315.587765	656.275946	-94.941369	271.709693	583.012466	-100.010639	346.316323	650.053794	-117.478122	242.525863	450.050665	-111.582870	256.175569	474.722141	-190.906392	172.936900	417.232040	-157.735172	467.582196	400.147473	-145.012435	365.673496	373.436233	-82.999114	63.252229	962.429715	-454.723080	138.067984	919.169785	-456.742835	164.121475	941.626759	-440.482526	181.398562	840.392497	-463.407051	260.359850	710.630959	-433.436279	245.573300	702.050319	-323.874293	163.936921	628.857655	-456.704992	121.773942	552.559593	-444.253826	44.990097	507.994328	-443.395608	144.482687	534.196016	-419.527302	-35.485199	413.943567	-433.968010	-9.864972	426.890747	-354.116663	-109.372098	400.898259	-391.540071	152.310509	267.170692	-394.283277	43.880381	286.602197	-458.983565	-259.990308	899.400370	-279.895709	-43.415322	85.159899	-474.863582	-51.391890	79.766986	-77.346779	
5	0.0250	438.099576	1377.304945	-125.665528	444.598596	1395.521250	-405.538137	416.011297	1466.919821	-269.188054	397.537149	1312.726921	-268.964298	533.101534	1131.583853	-39.082840	698.489696	922.090405	-77.021330	529.720320	1137.398925	-493.548890	762.431416	1037.194750	-448.040143	-101.803513	1165.412584	-261.438543	53.577404	1178.351805	-402.570971	52.652568	1188.910260	-122.583827	96.997012	1120.483866	-372.535409	87.530759	1125.600430	-149.250067	-65.392029	1210.786044	-221.520045	-63.306051	1213.856575	-306.864940	1.513339	1061.198781	-89.610453	-22.094226	1074.878158	-432.381887	100.276000	998.813158	-73.455370	187.418735	979.728031	-72.934675	251.355953	919.252612	-78.037988	203.454113	1011.460373	-84.521902	382.103499	838.847357	-107.240890	370.363825	834.216355	-217.546080	318.884039	745.444332	-86.117790	315.558705	656.598345	-94.873896	271.595821	583.249443	-99.968679	346.278568	650.335673	-117.449317	242.531288	450.053422	-111.567638	255.925037	474.994083	-190.883741	172.767562	417.489597	-157.404632	467.492635	400.328232	-144.937856	365.522562	373.709315	-82.860134	63.168147	962.306646	-454.451233	138.109150	919.429913	-456.898212	164.038390	941.815098	-440.518173	181.424054	840.435867	-463.444341	260.230160	710.805156	-433.498973	245.123040	702.322444	-323.682573	163.940292	629.032179	-456.711378	121.537506	552.959262	-444.087124	44.986904	507.929323	-443.419610	144.463992	534.336235	-419.514559	-35.557754	413.919465	-434.087014	-9.266713	426.411965	-354.353313	-109.401945	400.829402	-391.563358	152.213248	267.117286	-394.382526	43.857427	286.563395	-458.994666	-259.284915	899.348423	-280.561974	-43.479888	84.968864	-475.056585	-51.669980	80.138400	-77.411147	
6	0.0300	438.121225	1377.348946	-125.631842	444.606048	1395.578566	-405.564340	415.953761	1466.957671	-269.267989	397.572699	1312.747315	-269.015422	533.124209	1131.630914	-39.057290	698.476269	922.095231	-77.021629	529.724167	1137.413350	-493.628379	762.287042	1037.314575	-448.233353	-101.812924	1165.429939	-261.446978	53.532507	1178.331026	-402.562488	52.619608	1188.973551	-122.584934	96.912279	1120.362822	-372.025366	87.519047	1125.596843	-149.260590	-65.377674	1210.826326	-221.554048	-63.330935	1213.869157	-306.895660	1.469436	1061.276488	-89.592772	-22.112707	1074.860614	-432.390652	100.283375	998.876141	-73.461492	187.424686	979.802374	-72.894864	251.350176	919.332197	-78.043537	203.451135	1011.526788	-84.515032	382.126781	838.912559	-107.232189	370.343055	834.267963	-217.534352	318.874308	745.520640	-86.116375	315.539606	656.671884	-94.864064	271.585737	583.329056	-99.958860	346.281932	650.413665	-117.469584	242.519401	450.094510	-111.542877	255.878942	475.053259	-190.910471	172.742141	417.593750	-157.341629	467.469928	400.382532	-144.945471	365.491285	373.789172	-82.828712	63.146498	962.281535	-454.412105	138.144848	919.474679	-456.919598	164.028811	941.820206	-440.513644	181.417211	840.446868	-463.460838	260.216067	710.848376	-433.492502	245.057323	702.310277	-323.699742	163.914156	629.035809	-456.658062	121.495358	552.990843	-444.054292	44.987619	507.902280	-443.404537	144.468234	534.347714	-419.490083	-35.559430	413.891822	-434.123076	-9.078224	426.195284	-354.381026	-109.396930	400.798378	-391.556184	152.191368	267.083983	-394.428884	43.872698	286.537791	-458.997469	-259.174022	899.327031	-280.705629	-43.493914	84.962223	-475.069593	-51.706123	80.170049	-77.449817	
